<?xml version="1.0" encoding="utf-8"?>
<!-- Generator: Adobe Illustrator 27.5.0, SVG Export Plug-In . SVG Version: 6.00 Build 0)  -->
<svg version="1.1" xmlns="http://www.w3.org/2000/svg" xmlns:xlink="http://www.w3.org/1999/xlink" x="0px" y="0px"
	 viewBox="0 0 625 500" style="enable-background:new 0 0 625 500;" xml:space="preserve">
<g id="BACKGROUND">
	<g>
		<rect style="fill:#445391;" width="625" height="500"/>
		<path style="fill:#5260A6;" d="M583.221,296.362c0-149.515-121.206-270.721-270.721-270.721S41.779,146.847,41.779,296.362
			c0,60.368,19.767,116.115,53.171,161.138H530.05C563.453,412.477,583.221,356.73,583.221,296.362z"/>
		<path style="fill:#6876BE;" d="M522.221,296.361c0-115.64-94.08-209.721-209.721-209.721
			c-115.64,0-209.721,94.081-209.721,209.721c0,64.696,29.453,122.638,75.648,161.139h268.146
			C492.768,418.999,522.221,361.058,522.221,296.361z"/>
		<rect y="457.5" style="fill:#293056;" width="625" height="42.5"/>
	</g>
</g>
<g id="OBJECTS">
	<g>
		<g>
			<g>
				<path style="fill:#B76D89;" d="M130.661,205.282L130.661,205.282c2.786-1.419,6.193-0.535,7.936,2.06l20.55,29.987
					l-15.227,3.021l-15.759-26.394C126.327,210.886,127.475,206.906,130.661,205.282z"/>
				<g>
					<path style="fill:#FFFFFF;" d="M263.514,233.83L263.514,233.83c-16.577,2.194-30.262,14.033-34.818,30.122l-18.182,64.211
						l-34.195,26.374l1.829,6.059c4.601,15.245,19.143,25.275,35.028,24.159l0,0c11.856-0.833,22.422-7.78,27.886-18.335
						l24.844-47.989L263.514,233.83z"/>
					<path style="fill:#E4E4E0;" d="M221.113,360.538l-10.598-32.375l5.571-19.676c2.182,0,3.525,3.137,3.964,5.274
						c0.438,2.137,0.073,4.355-0.44,6.476c-0.512,2.121-1.175,4.222-1.337,6.398c-0.535,7.159,4.32,13.617,5.291,20.73
						C224.128,351.5,223.136,356.889,221.113,360.538z"/>
					<path style="fill:#E4E4E0;" d="M265.906,318.43l-1.369-48.423c-10.606,16.156-11.093,36.594-0.849,52.708L265.906,318.43z"/>
					<path style="fill:#F2F2F2;" d="M203.627,315.378c2.005-1.038,4.599-0.032,6,1.739c1.401,1.771,1.858,4.099,2.094,6.344
						c0.236,2.245,0.305,4.547,1.09,6.664c0.951,2.565,2.869,4.633,4.352,6.932c1.483,2.299,2.557,5.191,1.574,7.744
						c-1.001,2.598-3.773,3.999-6.365,5.017c-11.394,4.474-23.89,6.11-36.052,4.719c-1.785-0.204-3.746-0.574-4.845-1.996
						c-1.496-1.935-0.651-4.686-0.535-7.13c0.193-4.054-1.822-7.831-3.35-11.591c-1.529-3.76-2.559-8.215-0.541-11.736
						C173.193,311.366,191.396,313.618,203.627,315.378z"/>
					<path style="fill:#EBA4B9;" d="M171.764,326.663l-13.5-60.375l-29.355-15.831c-3.661-1.975-6.569-5.101-8.275-8.895
						l-7.371-16.4l-1.539-13.85c-0.313-2.814,1.89-5.275,4.721-5.275l0,0c2.286,0,4.248,1.628,4.669,3.875l2.273,12.125l10.75,14
						l-4.5-14.5l-0.994-15.364c-0.206-3.187,2.323-5.886,5.517-5.886l0,0c2.933,0,5.355,2.29,5.52,5.219l0.831,14.781l8,17.875
						l-3.625-17.875l0.438-12.797c0.102-2.978,2.656-5.276,5.629-5.064l0,0c2.822,0.202,4.979,2.601,4.88,5.429l-0.447,12.682
						l5.875,17.625l0.5-14.125l2.131-8.607c0.621-2.508,3.138-4.054,5.655-3.476l0,0c2.587,0.594,4.18,3.199,3.53,5.772
						l-2.192,8.686l1.75,13.875c14.375,3.375,14.375,23.188,14.375,23.188l19.583,57.188
						C194.098,329.663,171.764,326.663,171.764,326.663z"/>
				</g>
			</g>
			<g>
				<path style="fill:#FFFFFF;" d="M413.264,229.83L413.264,229.83c17.497,0.695,32.063,13.663,34.776,30.963l12.604,80.371
					l15.86,57.614c-11.74,15.636-38.47,13.386-48.355-7.364c-9.885-20.75-17.91-77.521-17.91-77.521L413.264,229.83z"/>
				<path style="fill:#E4E4E0;" d="M455.132,306.015c-5.997,11.251-14.657,26.627-20.655,37.878
					c-1.359,2.549-2.481,5.878-2.046,8.734c0.435,2.856,1.333,5.748,0.751,8.578c-0.473,2.301-1.877,4.292-2.705,6.49
					c-1.119,2.969-1.143,6.336-0.068,9.321c1.075,2.985,3.241,5.563,5.996,7.136l-3.513,2.709
					c3.372,13.468,24.185,23.363,43.611,11.916l-15.86-57.614L455.132,306.015z"/>
				<path style="fill:#E4E4E0;" d="M410.239,313.892l1.579-43.884c17.279,21.489-0.526,50.844-0.526,50.844L410.239,313.892z"/>
				<g>
					<path style="fill:#F2F2F2;" d="M477.519,361.495c2.741,1.66,4.263,4.863,4.628,8.047c0.365,3.184-0.273,6.392-0.995,9.514
						c-0.722,3.123-1.535,6.264-1.527,9.469c0.007,2.629,0.533,5.437-0.702,7.758c-1.309,2.459-4.198,3.585-6.909,4.223
						c-11.248,2.647-23.619,0.033-32.835-6.936c-2.46-1.861-4.729-4.046-6.287-6.708c-1.558-2.662-2.362-5.845-1.801-8.878
						c0.698-3.779,3.396-6.982,3.96-10.783c0.312-2.099-0.052-4.231-0.214-6.347c-0.162-2.116-0.093-4.358,0.979-6.19
						c1.071-1.832,3.421-3.061,5.381-2.248C452.192,356.979,467.337,355.328,477.519,361.495z"/>
					<path style="fill:#DD89AC;" d="M462.514,282.663l-24.5,77.5c4.75,18,34.5,16.75,40.75,14.5c10.75-57.25,14.375-92,14.375-92
						H462.514z"/>
					<path style="fill:#B76D89;" d="M469.389,243.913l-9.125,14.875h-14l-9.144-5.767c-2.646-1.669-6.137-0.96-7.923,1.609l0,0
						c-2.06,2.964-0.971,7.068,2.288,8.62l15.571,7.413c2.833,7.625,12.833,12.75,12.833,12.75
						c4.936,5.346,20.435,7.588,26.125,6.25c5.69-1.338,7.125-19.75,7.125-19.75l-10.625-26H469.389z"/>
					<path style="fill:#EBA4B9;" d="M451.055,243.561l13.782-10.488c2.523-1.92,5.767-2.628,8.861-1.933l6.366,1.43
						c3.087,0.693,5.711,2.712,7.173,5.518l6.292,12.076c3.816,7.324,5.299,15.64,4.252,23.831l-0.733,5.73
						c-0.265,2.075-1.164,4.018-2.573,5.563l-5.585,6.125l-11.45,6.775c-1.986,1.175-4.545,0.58-5.809-1.351l0,0
						c-1.257-1.92-0.791-4.487,1.059-5.844l9.825-7.205l4.125-7.25l-9.625,6.5l-13.889,6.519c-2.503,1.175-5.487,0.157-6.751-2.302
						l0,0c-1.301-2.533-0.295-5.64,2.245-6.928l12.645-6.414l8.625-6.5l0.75-6.75l-25.249,11.268
						c-2.822,1.26-6.139,0.136-7.614-2.58l0,0c-1.584-2.916-0.462-6.564,2.487-8.086l14.002-7.227l13.144-5.71l-2.374-1.258
						c-2.922-1.548-6.449-1.413-9.245,0.352l-8.38,5.291c-2.37,1.497-5.483,1.001-7.271-1.158l0,0
						C448.116,249.114,448.533,245.48,451.055,243.561z"/>
				</g>
			</g>
			<g>
				<path style="fill:#FFFFFF;" d="M307.598,227.997l-44.083,5.833l3.687,130.409c0.375,13.264-0.243,26.538-1.85,39.71
					l-6.531,53.551h155.477l-5.108-58.515c-0.949-10.871-1.228-21.79-0.836-32.695l4.911-136.46l-46.167-1.833H307.598z"/>
				<polygon style="fill:#E4E4E0;" points="313.098,216.997 361.598,216.997 342.931,233.83 331.764,233.83 				"/>
				<g>
					<polygon style="fill:#EBA4B9;" points="318.014,205.913 318.014,228.538 331.764,233.83 336.764,247.788 334.514,258.663 
						339.712,266.288 343.639,258.913 341.264,246.038 342.931,233.83 359.139,225.788 359.139,187.913 					"/>
					<path style="fill:#2A335A;" d="M333.617,216.978c7.346-1.949,13.729-6.917,17.967-13.225c3.059-4.555,5.024-9.772,6.038-15.175
						l-39.607,17.336v10.708C323.049,218.178,328.521,218.33,333.617,216.978z"/>
				</g>
				<polygon style="fill:#E4E4E0;" points="331.764,233.83 331.764,247.83 324.931,262.163 307.598,227.997 				"/>
				<polygon style="fill:#E4E4E0;" points="342.931,233.83 344.319,246.997 351.598,262.163 367.098,227.997 				"/>
				<polygon style="fill:#E4E4E0;" points="339.712,266.288 342.931,279.163 338.577,293.913 340.754,418.913 335.764,293.33 
					340.264,279.496 				"/>
				<path style="fill:#E4E4E0;" d="M349.736,266.977c0,1.496-1.213,2.708-2.708,2.708c-1.496,0-2.708-1.213-2.708-2.708
					c0-1.496,1.213-2.708,2.708-2.708C348.524,264.269,349.736,265.482,349.736,266.977z"/>
				<path style="fill:#E4E4E0;" d="M347.028,295.43c0,1.496-1.213,2.708-2.708,2.708c-1.496,0-2.708-1.213-2.708-2.708
					c0-1.496,1.212-2.708,2.708-2.708C345.815,292.721,347.028,293.934,347.028,295.43z"/>
				<path style="fill:#E4E4E0;" d="M348.348,332.003c0,1.496-1.213,2.708-2.708,2.708c-1.496,0-2.708-1.213-2.708-2.708
					c0-1.496,1.213-2.708,2.708-2.708C347.135,329.294,348.348,330.507,348.348,332.003z"/>
				<path style="fill:#E4E4E0;" d="M349.668,368.576c0,1.496-1.213,2.708-2.708,2.708c-1.496,0-2.708-1.213-2.708-2.708
					c0-1.496,1.213-2.708,2.708-2.708C348.455,365.867,349.668,367.08,349.668,368.576z"/>
				<path style="fill:#E4E4E0;" d="M350.988,405.149c0,1.496-1.213,2.708-2.708,2.708c-1.496,0-2.708-1.212-2.708-2.708
					c0-1.496,1.213-2.708,2.708-2.708C349.775,402.44,350.988,403.653,350.988,405.149z"/>
				<polygon style="fill:#FFFFFF;" points="313.098,216.997 331.764,233.83 323.564,256.83 307.598,227.997 				"/>
				<polygon style="fill:#FFFFFF;" points="361.598,216.997 342.931,233.83 351.131,256.83 367.098,227.997 				"/>
			</g>
			<g>
				<path style="fill:#EBA4B9;" d="M281.632,153.757l4.27,23.295c3.856,21.04,23.42,35.446,44.657,32.883h0
					c21.939-2.648,37.698-22.404,35.403-44.383l-2.46-23.555c-2.415-23.122-23.396-39.72-46.453-36.747h0
					C293.524,108.283,277.356,130.427,281.632,153.757z"/>
				<path style="fill:#293056;" d="M365.446,172.545c-3.78-2.381-5.905-6.791-6.56-11.211c-0.655-4.419-0.031-8.917,0.593-13.34
					c-5.029-2.849-8.983-7.166-10.974-12.592c-1.991-5.426-1.991-11.558,0.001-16.983c-11.261-1.377-23.059,1.849-33.686,5.821
					c-10.627,3.972-21.25,8.547-32.553,9.528c-5.31,0.461-10.9,0.049-15.526-2.597c-7.471-4.272-10.864-13.825-9.524-22.326
					c1.34-8.501,6.669-15.937,13.11-21.643c0.422,2.964,2.651,5.824,5.589,6.404c2.938,0.579,6-0.29,8.637-1.709
					c2.637-1.419,4.944-3.365,7.353-5.143c5.92-4.37,12.547-7.78,19.543-10.057c7.826-2.546,16.271-3.664,24.329-1.994
					c8.058,1.671,15.682,6.359,19.831,13.466c-0.461-6.187,2.203-11.851,6.422-16.4c2.571,5.438,2.687,12.48,0.163,17.94
					c5.571-4.664,13.165-6.839,20.409-6.274c-3.097,5.729-8.862,10.284-15.166,11.919c24.328,6.478,20.087,31.596,15.193,43.244
					L365.446,172.545z"/>
				<path style="fill:#383E6E;" d="M264.013,110.285c3.153,4.581,8.912,6.792,14.467,7.057c9.053,0.432,17.757-3.576,25.328-8.56
					c7.571-4.984,14.443-11.028,22.34-15.476c7.897-4.448,18.867-8.221,29.461-5.137c-4.149-7.107-11.773-11.796-19.831-13.466
					c-8.058-1.671-16.504-0.552-24.329,1.994c-6.997,2.276-13.624,5.687-19.543,10.057c-2.409,1.778-4.717,3.724-7.353,5.143
					c-2.637,1.419-5.7,2.288-8.637,1.709c-2.938-0.58-5.166-3.439-5.589-6.404c-3.047,2.699-5.838,5.789-8.082,9.192
					c-0.05,0.173-0.113,0.34-0.159,0.514C260.903,101.402,261.378,106.456,264.013,110.285z"/>
				<path style="fill:#383E6E;" d="M367.437,95.352c-4.97,3.266-8.864,9.032-9.633,14.929c-0.769,5.897,1.15,12.092,5.117,16.523
					c2.103,2.349,4.786,4.226,7.809,5.123c3.023,0.897,6.39,0.766,9.221-0.621c2.847-1.394,4.921-3.939,6.246-6.853
					C387.333,112.875,384.04,99.773,367.437,95.352z"/>
				<g>
					<g>
						<path style="fill:#4E5687;" d="M338.149,132.684l-18.566,2.869c5.129-0.792,9.928,2.723,10.721,7.851l3.215,20.807
							c0.793,5.128-2.723,9.928-7.851,10.721l18.566-2.869c5.128-0.792,8.644-5.592,7.851-10.721l-3.215-20.807
							C348.078,135.406,343.278,131.891,338.149,132.684z"/>
						<path style="fill:#8B93C2;" d="M319.583,135.553l-30.099,4.651l-18.566,2.869c-5.129,0.792-8.643,5.592-7.851,10.721
							l3.215,20.807c0.793,5.128,5.592,8.643,10.721,7.851l18.566-2.869l30.099-4.651c5.129-0.792,8.644-5.592,7.851-10.721
							l-3.215-20.807C329.512,138.275,324.712,134.76,319.583,135.553z"/>
						<path style="fill:#FFFFFF;" d="M273.144,156.374L273.144,156.374c-2.137,0.33-4.137-1.134-4.467-3.271l0,0
							c-0.33-2.137,1.134-4.137,3.271-4.467l0,0c2.137-0.33,4.137,1.134,4.467,3.271l0,0
							C276.745,154.044,275.28,156.044,273.144,156.374z"/>
						<path style="fill:#FFFFFF;" d="M276.372,177.267L276.372,177.267c-2.137,0.33-4.137-1.134-4.467-3.271l-1.647-10.662
							c-0.33-2.137,1.134-4.137,3.271-4.467l0,0c2.137-0.33,4.137,1.134,4.467,3.271l1.647,10.662
							C279.973,174.937,278.509,176.937,276.372,177.267z"/>
					</g>
					<polygon style="fill:#8B93C2;" points="344.764,145.413 346.764,157.114 384.126,150.686 382.63,138.596 					"/>
				</g>
				<g>
					<path style="fill:#EBA4B9;" d="M372.884,152.987c2.652-2.119,6.046-3.799,9.354-3.04c3.108,0.714,5.439,3.523,6.273,6.601
						c0.834,3.078,0.378,6.371-0.527,9.429c-0.92,3.111-2.324,6.124-4.457,8.569c-2.133,2.445-5.045,4.29-8.254,4.771
						c-3.209,0.481-6.693-0.522-8.883-2.916C359.537,168.911,366.53,158.065,372.884,152.987z"/>
					<path style="fill:#B76D89;" d="M383.174,157.114c-4.247-0.02-8.464,1.937-11.19,5.193c-1.161,1.386-2.081,3.07-2.128,4.878
						c-0.047,1.808,0.963,3.717,2.673,4.307c1.378,0.475,2.94,0.028,4.129-0.814c1.122-0.795,2.009-1.967,2.296-3.312
						c0.287-1.344-0.086-2.852-1.088-3.792c-1.003-0.94-2.64-1.195-3.806-0.467C375.978,160.189,379.723,157.659,383.174,157.114z"
						/>
				</g>
				<path style="fill:#FFFFFF;" d="M339.038,184.061c-11.458,2.126-22.916,4.252-34.374,6.379c2.357,4.328,6.113,8.297,10.55,10.441
					c3.642,1.76,7.795,2.57,11.793,1.947c3.997-0.623,7.806-2.746,10.164-6.034S340.465,187.846,339.038,184.061z"/>
				<path style="fill:#B76D89;" d="M286.811,180.936l57.423-8.873C326.389,183.788,299.696,185.028,286.811,180.936z"/>
			</g>
		</g>
		<g style="opacity:0.7;">
			<g style="opacity:0.7;">
				<path style="fill:#ABF2FB;" d="M200.514,201.274h-89.667c-5.523,0-10-4.477-10-10v-51.392c0-5.523,4.477-10,10-10h89.667
					c5.523,0,10,4.477,10,10v51.392C210.514,196.797,206.037,201.274,200.514,201.274z"/>
				<path style="fill:#FFFFFF;" d="M200.514,202.274h-89.666c-6.065,0-11-4.935-11-11v-51.392c0-6.065,4.935-11,11-11h89.666
					c6.066,0,11,4.935,11,11v51.392C211.514,197.34,206.58,202.274,200.514,202.274z M110.848,130.882c-4.962,0-9,4.038-9,9v51.392
					c0,4.962,4.038,9,9,9h89.666c4.962,0,9-4.038,9-9v-51.392c0-4.962-4.038-9-9-9H110.848z"/>
			</g>
			<g>
				<g>
					<rect x="112.772" y="138.634" style="fill:#67BBC1;" width="28.531" height="8"/>
					<rect x="141.303" y="138.634" style="fill:#97E3ED;" width="57.288" height="8"/>
				</g>
				<g>
					<rect x="112.772" y="153.93" style="fill:#67BBC1;" width="59.531" height="8"/>
					<rect x="172.302" y="153.93" style="fill:#97E3ED;" width="26.288" height="8"/>
				</g>
				<g>
					<rect x="112.772" y="169.227" style="fill:#67BBC1;" width="42.909" height="8"/>
					<rect x="155.681" y="169.227" style="fill:#97E3ED;" width="42.909" height="8"/>
				</g>
				<g>
					<rect x="112.772" y="184.523" style="fill:#67BBC1;" width="70.031" height="8"/>
					<rect x="182.802" y="184.523" style="fill:#97E3ED;" width="15.788" height="8"/>
				</g>
			</g>
			<g style="opacity:0.5;">
				<g>
					<path style="fill:#FFFFFF;" d="M95.438,141.573c-10.109,0-18.333-8.225-18.333-18.333c0-10.109,8.224-18.334,18.333-18.334
						c10.109,0,18.333,8.225,18.333,18.334C113.772,133.348,105.547,141.573,95.438,141.573z M95.438,106.906
						c-9.006,0-16.333,7.327-16.333,16.334c0,9.006,7.327,16.333,16.333,16.333c9.006,0,16.333-7.327,16.333-16.333
						C111.772,114.233,104.445,106.906,95.438,106.906z"/>
				</g>
				<g>
					<path style="fill:#D055AB;" d="M88.665,133.649v-20.82l18.031,10.41L88.665,133.649z M90.665,116.293v13.893l12.031-6.946
						L90.665,116.293z"/>
				</g>
			</g>
			<g style="opacity:0.7;">
				<g>
					<path style="fill:#ABF2FB;" d="M127.265,292.739h-71.5c-5.523,0-10-4.477-10-10v-35.285c0-5.523,4.477-10,10-10h71.5
						c5.523,0,10,4.477,10,10v35.285C137.264,288.262,132.787,292.739,127.265,292.739z"/>
					<path style="fill:#FFFFFF;" d="M127.265,293.739h-71.5c-6.065,0-11-4.935-11-11v-35.285c0-6.065,4.935-10.999,11-10.999h71.5
						c6.065,0,11,4.935,11,10.999v35.285C138.264,288.805,133.33,293.739,127.265,293.739z M55.765,238.455
						c-4.962,0-9,4.037-9,8.999v35.285c0,4.963,4.038,9,9,9h71.5c4.962,0,9-4.037,9-9v-35.285c0-4.962-4.038-8.999-9-8.999H55.765z"
						/>
				</g>
				<g>
					<path style="fill:#ABF2FB;" d="M234.514,292.739h-71.5c-5.523,0-10-4.477-10-10v-35.285c0-5.523,4.477-10,10-10h71.5
						c5.523,0,10,4.477,10,10v35.285C244.514,288.262,240.037,292.739,234.514,292.739z"/>
					<path style="fill:#FFFFFF;" d="M234.514,293.739h-71.5c-6.065,0-11-4.935-11-11v-35.285c0-6.065,4.935-10.999,11-10.999h71.5
						c6.066,0,11,4.935,11,10.999v35.285C245.514,288.805,240.58,293.739,234.514,293.739z M163.014,238.455
						c-4.962,0-9,4.037-9,8.999v35.285c0,4.963,4.038,9,9,9h71.5c4.962,0,9-4.037,9-9v-35.285c0-4.962-4.038-8.999-9-8.999H163.014z
						"/>
				</g>
				<g>
					<path style="fill:#ABF2FB;" d="M127.265,361.362h-71.5c-5.523,0-10-4.477-10-10v-35.285c0-5.523,4.477-10,10-10h71.5
						c5.523,0,10,4.477,10,10v35.285C137.264,356.884,132.787,361.362,127.265,361.362z"/>
					<path style="fill:#FFFFFF;" d="M127.265,362.361h-71.5c-6.065,0-11-4.935-11-11v-35.284c0-6.066,4.935-11,11-11h71.5
						c6.065,0,11,4.934,11,11v35.284C138.264,357.427,133.33,362.361,127.265,362.361z M55.765,307.077c-4.962,0-9,4.037-9,9v35.284
						c0,4.963,4.038,9,9,9h71.5c4.962,0,9-4.037,9-9v-35.284c0-4.963-4.038-9-9-9H55.765z"/>
				</g>
				<g>
					<path style="fill:#ABF2FB;" d="M234.514,361.362h-71.5c-5.523,0-10-4.477-10-10v-35.285c0-5.523,4.477-10,10-10h71.5
						c5.523,0,10,4.477,10,10v35.285C244.514,356.884,240.037,361.362,234.514,361.362z"/>
					<path style="fill:#FFFFFF;" d="M234.514,362.361h-71.5c-6.065,0-11-4.935-11-11v-35.284c0-6.066,4.935-11,11-11h71.5
						c6.066,0,11,4.934,11,11v35.284C245.514,357.427,240.58,362.361,234.514,362.361z M163.014,307.077c-4.962,0-9,4.037-9,9
						v35.284c0,4.963,4.038,9,9,9h71.5c4.962,0,9-4.037,9-9v-35.284c0-4.963-4.038-9-9-9H163.014z"/>
				</g>
			</g>
			<g>
				<rect x="160.354" y="381.739" style="fill:#ABF2FB;" width="64.333" height="5"/>
				<rect x="160.354" y="394.739" style="fill:#ABF2FB;" width="46.244" height="5"/>
				<rect x="214.02" y="394.739" style="fill:#ABF2FB;" width="10.667" height="5"/>
			</g>
			<g>
				<rect x="55.098" y="381.739" style="fill:#ABF2FB;" width="64.333" height="5"/>
				<rect x="55.098" y="394.739" style="fill:#ABF2FB;" width="33.667" height="5"/>
				<rect x="55.098" y="407.739" style="fill:#ABF2FB;" width="73.417" height="5"/>
				<rect x="55.098" y="420.739" style="fill:#ABF2FB;" width="37.917" height="5"/>
				<rect x="100.473" y="420.739" style="fill:#ABF2FB;" width="11.223" height="5"/>
			</g>
			<g style="opacity:0.8;">
				<path style="fill:#ABF2FB;" d="M554.035,447.114H348.702c-5.523,0-10-4.477-10-10v-140c0-5.523,4.477-10,10-10h205.333
					c5.523,0,10,4.477,10,10v140C564.035,442.637,559.558,447.114,554.035,447.114z"/>
				<path style="fill:#FFFFFF;" d="M554.035,448.114H348.702c-6.065,0-11-4.935-11-11v-140c0-6.065,4.935-11,11-11h205.333
					c6.065,0,11,4.935,11,11v140C565.035,443.18,560.1,448.114,554.035,448.114z M348.702,288.114c-4.963,0-9,4.037-9,9v140
					c0,4.963,4.037,9,9,9h205.333c4.963,0,9-4.037,9-9v-140c0-4.963-4.037-9-9-9H348.702z"/>
			</g>
			<g>
				<rect x="355.994" y="304.522" style="fill:#67BBC1;" width="50.987" height="5"/>
				<rect x="355.994" y="317.522" style="fill:#67BBC1;" width="62.625" height="5"/>
				<rect x="355.994" y="330.522" style="fill:#67BBC1;" width="43.292" height="5"/>
				<rect x="355.994" y="343.522" style="fill:#67BBC1;" width="43.292" height="5"/>
				<rect x="406.744" y="343.522" style="fill:#67BBC1;" width="11.223" height="5"/>
				<rect x="455.994" y="375.837" style="fill:#67BBC1;" width="50.987" height="5"/>
				<rect x="517.967" y="375.837" style="fill:#67BBC1;" width="11.235" height="5"/>
				<rect x="455.994" y="388.837" style="fill:#67BBC1;" width="43.292" height="5"/>
				<rect x="509.952" y="388.837" style="fill:#67BBC1;" width="38.333" height="5"/>
				<rect x="455.994" y="401.837" style="fill:#67BBC1;" width="31.313" height="5"/>
				<rect x="496.699" y="401.837" style="fill:#67BBC1;" width="51.586" height="5"/>
				<rect x="455.994" y="414.837" style="fill:#67BBC1;" width="43.292" height="5"/>
				<rect x="506.744" y="414.837" style="fill:#67BBC1;" width="11.223" height="5"/>
				<g>
					<path style="fill:#ABF2FB;" d="M543.285,361.754h-81.333c-2.761,0-5-2.239-5-5v-47.806c0-2.761,2.239-5,5-5h81.333
						c2.761,0,5,2.239,5,5v47.806C548.285,359.515,546.047,361.754,543.285,361.754z"/>
					<path style="fill:#FFFFFF;" d="M543.285,362.754h-81.333c-3.309,0-6-2.691-6-6v-47.807c0-3.309,2.691-6,6-6h81.333
						c3.309,0,6,2.691,6,6v47.807C549.285,360.063,546.594,362.754,543.285,362.754z M461.952,304.947c-2.206,0-4,1.794-4,4v47.807
						c0,2.206,1.794,4,4,4h81.333c2.206,0,4-1.794,4-4v-47.807c0-2.206-1.794-4-4-4H461.952z"/>
				</g>
				<g>
					<polygon style="fill:#FFFFFF;" points="521.433,327.137 509.995,341.725 490.839,317.294 467.021,347.67 505.333,347.67 
						514.656,347.67 537.534,347.67 					"/>
					<circle style="fill:#FFFFFF;" cx="508.637" cy="319.486" r="6.019"/>
				</g>
				<g>
					<path style="fill:#ABF2FB;" d="M425.952,430.281h-66.5c-2.761,0-5-2.239-5-5v-44.443c0-2.761,2.239-5,5-5h66.5
						c2.762,0,5,2.239,5,5v44.443C430.952,428.042,428.714,430.281,425.952,430.281z"/>
					<path style="fill:#FFFFFF;" d="M425.952,431.281h-66.5c-3.309,0-6-2.691-6-6v-44.443c0-3.309,2.691-6,6-6h66.5
						c3.309,0,6,2.691,6,6v44.443C431.952,428.59,429.261,431.281,425.952,431.281z M359.452,376.838c-2.206,0-4,1.794-4,4v44.443
						c0,2.206,1.794,4,4,4h66.5c2.206,0,4-1.794,4-4v-44.443c0-2.206-1.794-4-4-4H359.452z"/>
				</g>
				<g>
					<polygon style="fill:#FFFFFF;" points="408.461,399.502 398.88,411.72 382.835,391.258 362.886,416.7 394.976,416.7 
						402.785,416.7 421.947,416.7 					"/>
					<path style="fill:#FFFFFF;" d="M397.743,398.135c2.784,0,5.041-2.257,5.041-5.041c0-2.784-2.257-5.041-5.041-5.041
						c-2.784,0-5.041,2.257-5.041,5.041C392.702,395.878,394.959,398.135,397.743,398.135z"/>
				</g>
			</g>
			<g style="opacity:0.8;">
				<g>
					<path style="fill:#FFFFFF;" d="M509.202,143.117c3.171,6.335,4.967,13.474,4.967,21.027c0,25.998-21.15,47.148-47.148,47.148
						c-25.998,0-47.148-21.15-47.148-47.148c0-25.997,21.15-47.148,47.148-47.148v-9c-30.96,0-56.148,25.188-56.148,56.148
						c0,30.96,25.189,56.148,56.148,56.148c30.96,0,56.148-25.188,56.148-56.148c0-8.968-2.125-17.445-5.879-24.972L509.202,143.117
						z"/>
					<path style="fill:#ABF2FB;" d="M467.021,116.996c18.444,0,34.438,10.651,42.181,26.12l8.088-3.945
						c-9.208-18.46-28.276-31.176-50.268-31.176c0,0,0,0,0,0L467.021,116.996C467.021,116.996,467.021,116.996,467.021,116.996z"/>
				</g>
				<g>
					<path style="fill:#ABF2FB;" d="M508.938,164.144c0-23.113-18.804-41.916-41.916-41.916c0,0,0,0,0,0v9c0,0,0,0,0,0
						c18.15,0,32.916,14.766,32.916,32.917c0,12.701-7.235,23.736-17.795,29.223l4.084,8.016
						C499.701,194.405,508.938,180.337,508.938,164.144z"/>
					<path style="fill:#FFFFFF;" d="M467.021,197.061c-18.15,0-32.917-14.766-32.917-32.917c0-18.15,14.766-32.916,32.917-32.917v-9
						c-23.113,0-41.917,18.804-41.917,41.916c0,23.113,18.804,41.917,41.917,41.917c6.92,0,13.447-1.696,19.205-4.678l-4.084-8.016
						C477.611,195.721,472.471,197.061,467.021,197.061z"/>
				</g>
				<g>
					<path style="fill:#ABF2FB;" d="M467.021,136.118C467.021,136.118,467.021,136.118,467.021,136.118l0,9c0,0,0,0,0,0
						c10.49,0,19.025,8.535,19.025,19.026c0,10.491-8.535,19.026-19.025,19.026c-6.569,0-12.37-3.347-15.79-8.424l-7.37,5.16
						c5.051,7.397,13.546,12.264,23.16,12.264c15.453,0,28.025-12.572,28.025-28.026
						C495.047,148.69,482.475,136.118,467.021,136.118z"/>
					<path style="fill:#FFFFFF;" d="M447.995,164.144c0-10.49,8.535-19.026,19.026-19.026v-9c-15.454,0-28.026,12.572-28.026,28.026
						c0,5.841,1.798,11.268,4.867,15.762l7.37-5.16C449.189,171.714,447.995,168.066,447.995,164.144z"/>
				</g>
			</g>
			<g style="opacity:0.5;">
				<g>
					<polygon style="fill:#FFFFFF;" points="63.098,223.479 50.764,223.479 50.764,121.156 63.098,121.156 63.098,123.156 
						52.765,123.156 52.765,221.479 63.098,221.479 					"/>
				</g>
				<g>
					<polygon style="fill:#FFFFFF;" points="161.353,113.924 159.353,113.924 159.353,85.641 468.021,85.641 468.021,95.642 
						466.021,95.642 466.021,87.641 161.353,87.641 					"/>
				</g>
				<g>
					<polygon style="fill:#FFFFFF;" points="544.573,277 542.573,277 542.573,173.064 533.264,173.064 533.264,171.064 
						544.573,171.064 					"/>
				</g>
			</g>
		</g>
		<g>
			<rect x="111.696" y="51.728" style="opacity:0.3;fill:#FFFFFF;" width="22.182" height="22.182"/>
			<rect x="124.431" y="64.333" style="opacity:0.3;fill:#FFFFFF;" width="15.667" height="15.667"/>
			<rect x="163.219" y="64.333" style="opacity:0.3;fill:#FFFFFF;" width="9.577" height="9.577"/>
			<rect x="137.264" y="99.783" style="opacity:0.3;fill:#FFFFFF;" width="13.047" height="13.047"/>
			<rect x="226.764" y="204.608" style="opacity:0.3;fill:#FFFFFF;" width="12.892" height="12.892"/>
			<rect x="219.115" y="211.054" style="opacity:0.3;fill:#FFFFFF;" width="14.359" height="14.359"/>
			<rect x="202.514" y="212.5" style="opacity:0.3;fill:#FFFFFF;" width="7" height="7"/>
			<rect x="81.265" y="209" style="opacity:0.3;fill:#FFFFFF;" width="11.779" height="11.779"/>
			<rect x="79.015" y="189.75" style="opacity:0.3;fill:#FFFFFF;" width="6.125" height="6.125"/>
			<rect x="56.931" y="201.274" style="opacity:0.3;fill:#FFFFFF;" width="5.154" height="5.154"/>
			<rect x="397.743" y="201.274" style="opacity:0.3;fill:#FFFFFF;" width="8.956" height="8.956"/>
			<rect x="507.098" y="79.667" style="opacity:0.3;fill:#FFFFFF;" width="20.116" height="20.116"/>
			<rect x="520.098" y="92.333" style="opacity:0.3;fill:#FFFFFF;" width="13.629" height="13.63"/>
			<rect x="536.764" y="71.768" style="opacity:0.3;fill:#FFFFFF;" width="12.566" height="12.566"/>
			<rect x="502.431" y="61" style="opacity:0.3;fill:#FFFFFF;" width="6.506" height="6.506"/>
			<rect x="443.372" y="47" style="opacity:0.3;fill:#FFFFFF;" width="17.253" height="17.253"/>
			<rect x="429.794" y="57.236" style="opacity:0.3;fill:#FFFFFF;" width="19.534" height="19.534"/>
			<rect x="410.239" y="51.333" style="opacity:0.3;fill:#FFFFFF;" width="10.429" height="10.429"/>
			<rect x="261.096" y="51.333" style="opacity:0.3;fill:#FFFFFF;" width="10.429" height="10.429"/>
			<rect x="522.492" y="230.878" style="opacity:0.3;fill:#FFFFFF;" width="15.042" height="15.042"/>
			<rect x="531.764" y="239.75" style="opacity:0.3;fill:#FFFFFF;" width="17.521" height="17.521"/>
			<rect x="547.285" y="225.75" style="opacity:0.3;fill:#FFFFFF;" width="18.163" height="18.163"/>
			<rect x="573.485" y="233" style="opacity:0.3;fill:#FFFFFF;" width="6.75" height="6.75"/>
			<rect x="562.014" y="264.834" style="opacity:0.3;fill:#FFFFFF;" width="10.166" height="10.166"/>
			<rect x="536.764" y="125.556" style="opacity:0.3;fill:#FFFFFF;" width="10.562" height="10.562"/>
			<rect x="55.098" y="67.003" style="opacity:0.3;fill:#FFFFFF;" width="18.958" height="18.958"/>
			<rect x="66.431" y="78.333" style="opacity:0.3;fill:#FFFFFF;" width="13" height="13"/>
			<rect x="143.216" y="410.239" style="opacity:0.3;fill:#FFFFFF;" width="17.137" height="17.137"/>
			<rect x="176.319" y="429.281" style="opacity:0.3;fill:#FFFFFF;" width="7.157" height="7.156"/>
			<rect x="200.764" y="412.739" style="opacity:0.3;fill:#FFFFFF;" width="13" height="13"/>
			<rect x="210.28" y="422.625" style="opacity:0.3;fill:#FFFFFF;" width="10.234" height="10.234"/>
			<rect x="224.687" y="414" style="opacity:0.3;fill:#FFFFFF;" width="6.625" height="6.625"/>
			<rect x="195.264" y="405.125" style="opacity:0.3;fill:#FFFFFF;" width="4.375" height="4.375"/>
		</g>
	</g>
</g>
</svg>
